<?xml version="1.0" encoding="utf-8"?>
<!-- Generator: Adobe Illustrator 26.2.1, SVG Export Plug-In . SVG Version: 6.00 Build 0)  -->
<svg version="1.1" id="Calque_1" xmlns="http://www.w3.org/2000/svg" xmlns:xlink="http://www.w3.org/1999/xlink" x="0px" y="0px"
	 viewBox="0 0 25 25" style="enable-background:new 0 0 25 25;" xml:space="preserve">
<style type="text/css">
	.st0{clip-path:url(#SVGID_00000083070003138838361560000015531967498894897569_);}
	.st1{fill:#1E1E1E;}
</style>
<g>
	<defs>
		<rect id="SVGID_1_" x="0.5" y="0.5" width="24" height="24"/>
	</defs>
	<clipPath id="SVGID_00000019643336498105962050000006976928020148596628_">
		<use xlink:href="#SVGID_1_"  style="overflow:visible;"/>
	</clipPath>
	<g style="clip-path:url(#SVGID_00000019643336498105962050000006976928020148596628_);">
		<path class="st1" d="M18,1.4c-1.1,0-2.2,0.3-3.2,0.9c-1,0.6-1.8,1.4-2.3,2.4c-0.5-1-1.3-1.8-2.3-2.4C9.2,1.7,8.1,1.4,7,1.4
			C5.2,1.5,3.5,2.3,2.3,3.6S0.4,6.7,0.5,8.5c0,6.8,11,14.6,11.4,14.9l0.6,0.4l0.6-0.4c0.5-0.3,11.4-8.2,11.4-14.9
			c0.1-1.8-0.6-3.5-1.8-4.9C21.5,2.3,19.8,1.5,18,1.4z M12.5,21.3c-3.3-2.4-10-8.4-10-12.9C2.4,7.2,2.9,6,3.7,5
			c0.8-0.9,2-1.5,3.3-1.6C8.3,3.5,9.4,4.1,10.3,5c0.8,0.9,1.3,2.2,1.2,3.5h2C13.4,7.2,13.9,6,14.7,5c0.8-0.9,2-1.5,3.3-1.6
			c1.3,0.1,2.4,0.7,3.3,1.6s1.3,2.2,1.2,3.5C22.5,12.9,15.8,18.9,12.5,21.3z"/>
	</g>
</g>
</svg>
