<?xml version="1.0" encoding="utf-8"?>
<!-- Generator: Adobe Illustrator 24.3.0, SVG Export Plug-In . SVG Version: 6.00 Build 0)  -->
<svg version="1.1" id="Calque_1" xmlns="http://www.w3.org/2000/svg" xmlns:xlink="http://www.w3.org/1999/xlink" x="0px" y="0px"
	 viewBox="0 0 64 64" style="enable-background:new 0 0 64 64;" xml:space="preserve">
<style type="text/css">
	.st0{fill:#FFFFFF;}
</style>
<path class="st0" d="M19.8,52H11V20.3h8.8V52z M15.4,16.8L15.4,16.8c-2.7,0-4.4-2-4.4-4.4C11,9.9,12.8,8,15.4,8
	c2.7,0,4.3,1.9,4.4,4.4C19.8,14.8,18.1,16.8,15.4,16.8z M53.2,52h-8.8V36.2c0-5.3-2.5-7-5.3-7c-2.5,0-5.3,1.8-5.3,7V52h-8.8V20.3
	h8.8v5.3c0.6-1.7,3.5-5.3,8.8-5.3c7,0,10.6,5.3,10.6,14.1V52z"/>
</svg>
